<mxfile host="app.diagrams.net" modified="2024-04-01T11:34:23.014Z" agent="Mozilla/5.0 (X11; Linux x86_64; rv:124.0) Gecko/20100101 Firefox/124.0" version="24.2.1" etag="aGeFQ3ny_xEHHsepWWVV" type="github">
  <diagram name="Page-1" id="R-WMTtVvu_zLb-jKjLG8">
    <mxGraphModel>
      <root>
        <mxCell id="0" />
        <mxCell id="1" parent="0" />
      </root>
    </mxGraphModel>
  </diagram>
</mxfile>
